# xmcd
#
# Track frame offsets: 
#        150
#        14205
#        31897
#        50650
#        80147
#        95827
#        110985
#        122800
#        135360
#        148910
#        162390
#        174985
#        187915
#
# Disc length: 2661 seconds
#
# Revision: 0
# Processed by: cddbd v1.5.2PL0 Copyright (c) Steve Scherf et al.
# Submitted via: ExactAudioCopy v0.99pb3
#
DISCID=c00a630d
DTITLE=Four Tops - Four Tops NOW
DYEAR=1969
DGENRE=Soul
TTITLE0=Eleanor Rigby
TTITLE1=Little Green Apples
TTITLE2=Do What You Gotta Do
TTITLE3=Mac Arthur Park
TTITLE4=The Fool on the Hill
TTITLE5=California Dreamin'
TTITLE6=The Key
TTITLE7=Wish I Didn't Love You So
TTITLE8=My Past Just Crossed My Future
TTITLE9=Don't Bring Back Memories
TTITLE10=Opportunity Knock (For Me)
TTITLE11=Don't Let Him Take Your Love From Me
TTITLE12=What Is a Man
EXTD=
EXTT0=
EXTT1=
EXTT2=
EXTT3=
EXTT4=
EXTT5=
EXTT6=
EXTT7=
EXTT8=
EXTT9=
EXTT10=
EXTT11=
EXTT12=
PLAYORDER=
